<?xml version="1.0" standalone="no"?>
<!DOCTYPE svg PUBLIC "-//W3C//DTD SVG 20010904//EN"
 "http://www.w3.org/TR/2001/REC-SVG-20010904/DTD/svg10.dtd">
<svg version="1.0" xmlns="http://www.w3.org/2000/svg"
 width="700.000000pt" height="700.000000pt" viewBox="0 0 700.000000 700.000000"
 preserveAspectRatio="xMidYMid meet">
<metadata>
Created by potrace 1.14, written by Peter Selinger 2001-2017
</metadata>
<g transform="translate(0.000000,700.000000) scale(0.100000,-0.100000)"
fill="#000000" stroke="none">
<path d="M1749 6953 c-2 -121 -31 -309 -66 -433 -20 -73 -89 -249 -117 -302
-89 -166 -133 -231 -242 -359 -187 -219 -414 -380 -689 -489 -75 -30 -270 -85
-335 -94 -147 -21 -167 -23 -253 -25 l-48 -1 4 -1022 c2 -563 7 -1041 11
-1063 4 -22 14 -89 22 -150 8 -60 17 -121 19 -135 19 -134 142 -566 189 -665
8 -16 24 -55 36 -85 12 -30 55 -121 95 -202 240 -479 586 -894 1015 -1219 47
-35 86 -67 88 -71 2 -5 8 -8 14 -8 8 0 93 -55 108 -70 3 -3 17 -12 32 -20 15
-8 66 -38 115 -66 144 -85 229 -127 408 -204 210 -91 553 -189 785 -225 212
-32 321 -40 560 -40 188 0 340 8 430 21 447 66 785 169 1140 348 392 196 764
481 1035 790 33 38 67 77 76 86 85 90 271 362 372 543 170 304 312 682 372
987 25 127 37 207 61 385 8 62 11 533 3 610 -15 162 -20 201 -29 250 -6 28
-12 68 -16 90 -11 76 -44 221 -75 325 -17 58 -34 119 -38 135 -44 166 -224
560 -340 740 -14 22 -31 51 -38 63 -25 46 -148 218 -224 312 -360 447 -807
788 -1339 1023 -50 22 -237 92 -285 107 -22 7 -50 16 -61 20 -36 14 -245 69
-321 85 -90 18 -103 20 -238 39 -60 9 -128 19 -150 22 -22 4 -500 8 -1062 11
l-1023 4 -1 -48z m1794 -1704 c313 -4 651 -111 927 -294 297 -197 536 -494
659 -820 13 -33 27 -69 31 -80 25 -62 59 -213 77 -340 9 -63 9 -364 0 -430
-38 -271 -116 -486 -272 -743 -58 -97 -224 -283 -345 -388 -95 -82 -294 -204
-410 -252 -30 -13 -64 -27 -75 -32 -26 -12 -125 -44 -195 -64 -51 -14 -112
-26 -220 -43 -61 -10 -372 -10 -440 1 -210 31 -359 76 -548 167 -458 221 -782
616 -926 1129 -27 98 -54 286 -55 393 l-1 47 -782 0 c-430 0 -779 2 -777 4 2
2 47 6 99 10 570 36 1201 262 1705 610 67 46 70 48 145 108 30 24 65 50 76 59
53 36 273 245 375 355 263 287 507 678 657 1054 72 181 147 428 178 585 4 22
8 42 9 45 1 3 5 28 10 55 4 28 9 59 11 70 6 32 27 187 29 220 2 17 4 55 6 85
2 30 5 -297 6 -727 l3 -783 43 -1z"/>
</g>
</svg>
