<?xml version="1.0" encoding="utf-8"?>
<!-- Generator: Adobe Illustrator 16.0.0, SVG Export Plug-In . SVG Version: 6.00 Build 0)  -->
<!DOCTYPE svg PUBLIC "-//W3C//DTD SVG 1.1//EN" "http://www.w3.org/Graphics/SVG/1.1/DTD/svg11.dtd">
<svg version="1.1" id="Layer_1" xmlns="http://www.w3.org/2000/svg" xmlns:xlink="http://www.w3.org/1999/xlink" x="0px" y="0px"
	 width="196px" height="41px" viewBox="0 0 196 41" enable-background="new 0 0 196 41" xml:space="preserve">
<path fill="#007DFC" d="M32.315,13.68c-1.368-0.914-2.976-1.402-4.622-1.402V3.959c3.29,0,6.507,0.976,9.244,2.804
	c2.736,1.828,4.868,4.427,6.128,7.467c1.259,3.041,1.588,6.386,0.947,9.615c-0.643,3.227-2.226,6.191-4.553,8.519
	c-2.327,2.326-5.292,3.91-8.519,4.553c-3.229,0.643-6.573,0.313-9.614-0.946c-3.04-1.26-5.639-3.393-7.467-6.129
	c-1.829-2.735-2.804-5.952-2.804-9.243h8.319c0,1.646,0.488,3.254,1.402,4.621c0.914,1.368,2.213,2.436,3.733,3.064
	c1.521,0.63,3.193,0.795,4.807,0.474c1.613-0.321,3.096-1.112,4.259-2.276s1.956-2.646,2.276-4.261
	c0.321-1.613,0.157-3.286-0.474-4.806C34.75,15.894,33.683,14.595,32.315,13.68z"/>
<path fill="#007DFC" d="M19.374,3.959c0,1.093-0.215,2.175-0.633,3.184c-0.418,1.009-1.031,1.926-1.803,2.699
	c-0.772,0.772-1.69,1.385-2.699,1.803s-2.091,0.633-3.184,0.633v8.32c2.185,0,4.349-0.43,6.368-1.267
	c2.018-0.835,3.853-2.061,5.397-3.606c1.546-1.545,2.771-3.379,3.607-5.397c0.836-2.019,1.267-4.183,1.267-6.368H19.374z"/>
<g>
	<path fill="#007DFC" d="M54.69,10.443h4.43l5.636,9.359l1.363,2.832l-0.21-12.19h4.194V28.27h-4.43l-5.636-9.358l-1.363-2.857
		l0.21,12.216H54.69V10.443z"/>
	<path fill="#007DFC" d="M72.464,21.034c0-4.692,2.281-7.314,5.793-7.314c1.573,0,2.805,0.603,3.67,1.756v-1.311h4.011v14.575
		c0,3.775-2.674,5.741-6.37,5.741c-3.591,0-6.187-1.573-6.685-5.007h4.011c0.157,1.258,1.232,1.939,2.622,1.939
		c1.442,0,2.412-0.655,2.412-2.621v-2.359c-0.891,1.232-2.149,1.861-3.67,1.861C74.692,28.296,72.464,25.517,72.464,21.034z
		 M81.928,21.008c0-2.595-0.944-4.037-2.7-4.037c-1.73,0-2.647,1.416-2.647,4.063c0,2.569,0.917,4.011,2.647,4.011
		C81.01,25.045,81.928,23.63,81.928,21.008z"/>
	<path fill="#007DFC" d="M97.316,14.166h4.011V28.27h-4.011v-1.888c-0.917,1.573-2.307,2.308-4.011,2.308
		c-2.674,0-4.64-1.626-4.64-5.139v-9.385h4.011v8.572c0,1.809,0.682,2.7,2.097,2.7c1.547,0,2.543-1.363,2.543-3.172V14.166z"/>
	<path fill="#007DFC" d="M104.001,34.089v-3.041h0.813c1.416,0,2.281-0.314,3.172-2.699l0.289-0.708l-5.453-13.475h4.273l2.7,7.497
		l0.524,2.124l0.576-2.124l2.569-7.497h4.089l-5.977,15.204c-1.494,3.854-2.962,5.112-5.61,5.112
		C105.181,34.482,104.368,34.246,104.001,34.089z"/>
	<path fill="#007DFC" d="M125,28.689c-4.378,0-7.078-2.832-7.078-7.472c0-4.797,2.727-7.498,6.921-7.498
		c4.221,0,6.868,2.805,6.868,7.418v0.892h-9.699c0.21,2.255,1.259,3.461,2.988,3.461c1.311,0,2.202-0.577,2.622-1.861h4.194
		C131.082,26.88,128.461,28.689,125,28.689z M122.091,19.724h5.479c-0.314-1.835-1.259-2.805-2.727-2.805
		C123.349,16.918,122.405,17.889,122.091,19.724z"/>
	<path fill="#007DFC" d="M133.914,14.166h4.011v1.861c0.917-1.573,2.359-2.307,4.09-2.307c2.7,0,4.718,1.652,4.718,5.138v9.411
		h-4.011v-8.599c0-1.782-0.707-2.7-2.176-2.7c-1.599,0-2.621,1.389-2.621,3.198v8.1h-4.011V14.166z"/>
	<path fill="#007DFC" d="M149.695,10.443h7.235c4.037,0,6.527,1.966,6.527,5.06c0,1.494-0.733,2.674-1.966,3.355
		c1.914,0.682,2.963,2.149,2.963,4.142c0,3.355-2.386,5.27-6.633,5.27h-8.127V10.443z M153.89,13.773v3.906h2.857
		c1.6,0,2.386-0.813,2.386-1.914c0-1.232-0.813-1.992-2.307-1.992H153.89z M153.89,20.72v4.221h3.828
		c1.572,0,2.438-0.839,2.438-2.124c0-1.231-0.892-2.097-2.569-2.097H153.89z"/>
	<path fill="#007DFC" d="M165.976,21.218c0-4.797,2.727-7.498,6.921-7.498c4.273,0,6.947,2.884,6.947,7.498
		c0,4.771-2.753,7.472-6.947,7.472C168.624,28.689,165.976,25.857,165.976,21.218z M175.728,21.218c0-2.726-0.996-4.247-2.831-4.247
		s-2.805,1.494-2.805,4.247c0,2.727,0.996,4.221,2.805,4.221C174.758,25.438,175.728,23.971,175.728,21.218z"/>
</g>
</svg>
